<svg id="Layer_1_1_" enable-background="new 0 0 64 64" height="512" viewBox="0 0 64 64" width="512" xmlns="http://www.w3.org/2000/svg"><path d="m50 50v-25l-18-15-18 15v25z" fill="#4d94c4"/><path d="m14 50-12 12h60l-12-12z" fill="#54a1d6"/><g fill="#59aae2"><path d="m50 50 12 12v-37h-12z"/><path d="m2 25h12l18-15 18 15h12l-30-23z"/><path d="m14 25h-12v37l12-12z"/></g><path d="m42.892 51.567c-.071-.318-.106-.643-.106-.968l-.968-9.362c0-1.932-.556-3.734-1.517-5.254l-.992-1.314c-1.804-2.016-4.426-3.284-7.343-3.284 3.799 0 7.019-2.481 8.127-5.911l.311-1.314c.066-.428.1-.867.1-1.314v-.769c0-1.17-1.415-1.756-2.242-.929l-1.352 1.352c-.541.541-1.428.507-1.926-.074l-2.02-2.357c-.524-.612-1.47-.612-1.995 0l-2.02 2.357c-.498.581-1.385.615-1.926.074l-1.352-1.352c-.828-.828-2.242-.241-2.242.929v.769c0 4.716 3.823 8.539 8.539 8.539-5.441 0-9.852 4.411-9.852 9.852l-.968 9.362c0 .326-.036.65-.106.968-.622 2.788 1.499 5.433 4.356 5.433h13.136c2.856 0 4.977-2.645 4.358-5.433z" fill="#f9da55"/><path d="m41.534 55.39h-13.136c-2.856 0-4.978-2.645-4.358-5.433.071-.318.106-.643.106-.968l.968-9.362c0-3.147 1.481-5.943 3.778-7.746-3.934 1.292-6.778 4.99-6.778 9.356l-.968 9.362c0 .326-.036.65-.106.968-.62 2.788 1.501 5.433 4.358 5.433h13.136c1.411 0 2.641-.647 3.451-1.636-.149.015-.298.026-.451.026z" fill="#dec14c"/><path d="m29.976 31.142c1.465-.863 3.166-1.367 4.99-1.367-4.478 0-8.144-3.449-8.503-7.834l-.793-.793c-.828-.828-2.242-.241-2.242.929v.769c-.001 4.029 2.794 7.398 6.548 8.296z" fill="#dec14c"/><path d="m33.259 31.505.183-.183c1.387-1.387 2.15-3.23 2.15-5.192h-2c0 1.427-.556 2.769-1.564 3.778l-.391.391-.991-.991c-.934-.934-1.314-2.311-.995-3.593l-1.939-.484c-.49 1.959.093 4.063 1.521 5.491l.476.476c-2.696.919-6.689 1.715-8.077-.369l-1.664 1.109c2.575 3.862 9.313 1.612 11.631.687.805 1.103 2.532 3.122 4.723 3.67l.484-1.94c-1.454-.364-2.808-1.85-3.547-2.85z" fill="#904c2a"/><path d="m31.786 41h.214c1.103 0 2 .897 2 2h2c0-1.858-1.279-3.411-3-3.858v-2.142h-2v2.097c-1.551.359-2.714 1.745-2.714 3.403 0 1.93 1.57 3.5 3.5 3.5h.428c.827 0 1.5.673 1.5 1.5s-.673 1.5-1.5 1.5h-.214c-1.103 0-2-.897-2-2h-2c0 1.858 1.279 3.411 3 3.858v2.142h2v-2.097c1.551-.359 2.714-1.745 2.714-3.403 0-1.93-1.57-3.5-3.5-3.5h-.428c-.827 0-1.5-.673-1.5-1.5s.673-1.5 1.5-1.5z" fill="#fff4c7"/></svg>